<svg xmlns="http://www.w3.org/2000/svg" width="3964" height="1130" viewBox="0 0 3964 1130">
<rect width="100%" height="100%" fill="#fbf7ee"/>
<path d="M2261,565 L2657,735" fill="none" stroke="#7a6f63" stroke-width="1.5"/>
<path d="M2261,565 L2261,735" fill="none" stroke="#7a6f63" stroke-width="1.5"/>
<path d="M2261,565 L1865,735" fill="none" stroke="#7a6f63" stroke-width="1.5"/>
<path d="M2360,395 L2261,565" fill="none" stroke="#7a6f63" stroke-width="1.5"/>
<path d="M2895,225 L2360,395" fill="none" stroke="#7a6f63" stroke-width="1.5"/>
<path d="M2895,225 L2895,395" fill="none" stroke="#7a6f63" stroke-width="1.5"/>
<path d="M2895,225 L3489,395" fill="none" stroke="#7a6f63" stroke-width="1.5"/>
<path d="M2994,55 L2895,225" fill="none" stroke="#7a6f63" stroke-width="1.5"/>
<path d="M2796,55 L2895,225" fill="none" stroke="#7a6f63" stroke-width="1.5"/>
<path d="M3489,395 L3588,565" fill="none" stroke="#7a6f63" stroke-width="1.5"/>
<path d="M3588,565 L3687,735" fill="none" stroke="#7a6f63" stroke-width="1.5"/>
<path d="M3588,565 L3489,735" fill="none" stroke="#7a6f63" stroke-width="1.5"/>
<path d="M3687,395 L3588,565" fill="none" stroke="#7a6f63" stroke-width="1.5"/>
<path d="M3687,225 L3687,395" fill="none" stroke="#7a6f63" stroke-width="1.5"/>
<path d="M3786,55 L3687,225" fill="none" stroke="#7a6f63" stroke-width="1.5"/>
<path d="M3588,55 L3687,225" fill="none" stroke="#7a6f63" stroke-width="1.5"/>
<path d="M3687,735 L3786,905" fill="none" stroke="#7a6f63" stroke-width="1.5"/>
<path d="M3786,905 L3786,1075" fill="none" stroke="#7a6f63" stroke-width="1.5"/>
<path d="M3885,735 L3786,905" fill="none" stroke="#7a6f63" stroke-width="1.5"/>
<path d="M2895,395 L2974,565 L2974,735 L2974,905" fill="none" stroke="#7a6f63" stroke-width="1.5"/>
<path d="M2974,905 L3172,1075" fill="none" stroke="#7a6f63" stroke-width="1.5"/>
<path d="M2974,905 L2974,1075" fill="none" stroke="#7a6f63" stroke-width="1.5"/>
<path d="M3093,735 L2974,905" fill="none" stroke="#7a6f63" stroke-width="1.5"/>
<path d="M3093,565 L3093,735" fill="none" stroke="#7a6f63" stroke-width="1.5"/>
<path d="M3291,395 L3093,565" fill="none" stroke="#7a6f63" stroke-width="1.5"/>
<path d="M3093,395 L3093,565" fill="none" stroke="#7a6f63" stroke-width="1.5"/>
<path d="M2162,395 L2261,565" fill="none" stroke="#7a6f63" stroke-width="1.5"/>
<path d="M1069,225 L2162,395" fill="none" stroke="#7a6f63" stroke-width="1.5"/>
<path d="M1069,225 L338.5,395" fill="none" stroke="#7a6f63" stroke-width="1.5"/>
<path d="M1069,225 L1069,395" fill="none" stroke="#7a6f63" stroke-width="1.5"/>
<path d="M1069,225 L871,395" fill="none" stroke="#7a6f63" stroke-width="1.5"/>
<path d="M1168,55 L1069,225" fill="none" stroke="#7a6f63" stroke-width="1.5"/>
<path d="M970,55 L1069,225" fill="none" stroke="#7a6f63" stroke-width="1.5"/>
<path d="M871,395 L871,565 L871,735" fill="none" stroke="#7a6f63" stroke-width="1.5"/>
<path d="M871,735 L871,905" fill="none" stroke="#7a6f63" stroke-width="1.5"/>
<path d="M871,735 L475,905" fill="none" stroke="#7a6f63" stroke-width="1.5"/>
<path d="M990,565 L871,735" fill="none" stroke="#7a6f63" stroke-width="1.5"/>
<path d="M871,905 L796,1075" fill="none" stroke="#7a6f63" stroke-width="1.5"/>
<path d="M1069,395 L1192,565" fill="none" stroke="#7a6f63" stroke-width="1.5"/>
<path d="M1192,565 L1390,735" fill="none" stroke="#7a6f63" stroke-width="1.5"/>
<path d="M1192,565 L994,735" fill="none" stroke="#7a6f63" stroke-width="1.5"/>
<path d="M1267,395 L1192,565" fill="none" stroke="#7a6f63" stroke-width="1.5"/>
<path d="M994,735 L1093,905" fill="none" stroke="#7a6f63" stroke-width="1.5"/>
<path d="M1093,905 L1192,1075" fill="none" stroke="#7a6f63" stroke-width="1.5"/>
<path d="M1093,905 L994,1075" fill="none" stroke="#7a6f63" stroke-width="1.5"/>
<path d="M1192,735 L1093,905" fill="none" stroke="#7a6f63" stroke-width="1.5"/>
<path d="M1390,735 L1588,905" fill="none" stroke="#7a6f63" stroke-width="1.5"/>
<path d="M1588,905 L1786,1075" fill="none" stroke="#7a6f63" stroke-width="1.5"/>
<path d="M1588,905 L1588,1075" fill="none" stroke="#7a6f63" stroke-width="1.5"/>
<path d="M1588,905 L1390,1075" fill="none" stroke="#7a6f63" stroke-width="1.5"/>
<path d="M1588,735 L1588,905" fill="none" stroke="#7a6f63" stroke-width="1.5"/>
<path d="M338.5,395 L338.5,565 L277,735" fill="none" stroke="#7a6f63" stroke-width="1.5"/>
<path d="M277,735 L277,905" fill="none" stroke="#7a6f63" stroke-width="1.5"/>
<path d="M277,735 L79,905" fill="none" stroke="#7a6f63" stroke-width="1.5"/>
<path d="M215.5,565 L277,735" fill="none" stroke="#7a6f63" stroke-width="1.5"/>
<path d="M215.5,395 L215.5,565" fill="none" stroke="#7a6f63" stroke-width="1.5"/>
<path d="M314.5,225 L215.5,395" fill="none" stroke="#7a6f63" stroke-width="1.5"/>
<path d="M116.5,225 L215.5,395" fill="none" stroke="#7a6f63" stroke-width="1.5"/>
<path d="M277,905 L475,1075" fill="none" stroke="#7a6f63" stroke-width="1.5"/>
<path d="M277,905 L277,1075" fill="none" stroke="#7a6f63" stroke-width="1.5"/>
<path d="M673,905 L475,1075" fill="none" stroke="#7a6f63" stroke-width="1.5"/>
<path d="M1865,735 L1984,905" fill="none" stroke="#7a6f63" stroke-width="1.5"/>
<path d="M1984,905 L2182,1075" fill="none" stroke="#7a6f63" stroke-width="1.5"/>
<path d="M1984,905 L1984,1075" fill="none" stroke="#7a6f63" stroke-width="1.5"/>
<path d="M2063,735 L1984,905" fill="none" stroke="#7a6f63" stroke-width="1.5"/>
<path d="M2261,735 L2380,905" fill="none" stroke="#7a6f63" stroke-width="1.5"/>
<path d="M2380,905 L2578,1075" fill="none" stroke="#7a6f63" stroke-width="1.5"/>
<path d="M2380,905 L2380,1075" fill="none" stroke="#7a6f63" stroke-width="1.5"/>
<path d="M2459,735 L2380,905" fill="none" stroke="#7a6f63" stroke-width="1.5"/>
<path d="M2657,735 L2776,905" fill="none" stroke="#7a6f63" stroke-width="1.5"/>
<path d="M2776,905 L2776,1075" fill="none" stroke="#7a6f63" stroke-width="1.5"/>
<path d="M2855,735 L2776,905" fill="none" stroke="#7a6f63" stroke-width="1.5"/>
<circle cx="2261" cy="565" r="3" fill="#b5462f"/>
<g transform="translate(2281,340)">
<rect width="158" height="110" rx="10" fill="#fffdf8" stroke="#2f3b2f" stroke-width="1.5"/>
<text x="79" y="55" text-anchor="middle" font-family="sans-serif" font-size="13" fill="#2b2b2b">Susan Smith</text>
</g>
<circle cx="2895" cy="225" r="3" fill="#b5462f"/>
<g transform="translate(2915,0)">
<rect width="158" height="110" rx="10" fill="#fffdf8" stroke="#2f3b2f" stroke-width="1.5"/>
<text x="79" y="55" text-anchor="middle" font-family="sans-serif" font-size="13" fill="#2b2b2b">Eleanor Anderson</text>
</g>
<g transform="translate(2717,0)">
<rect width="158" height="110" rx="10" fill="#fffdf8" stroke="#2f3b2f" stroke-width="1.5"/>
<text x="79" y="55" text-anchor="middle" font-family="sans-serif" font-size="13" fill="#2b2b2b">Henry Anderson</text>
</g>
<g transform="translate(3410,340)">
<rect width="158" height="110" rx="10" fill="#fffdf8" stroke="#2f3b2f" stroke-width="1.5"/>
<text x="79" y="55" text-anchor="middle" font-family="sans-serif" font-size="13" fill="#2b2b2b">Helen Anderson</text>
</g>
<circle cx="3588" cy="565" r="3" fill="#b5462f"/>
<g transform="translate(3608,340)">
<rect width="158" height="110" rx="10" fill="#fffdf8" stroke="#2f3b2f" stroke-width="1.5"/>
<text x="79" y="55" text-anchor="middle" font-family="sans-serif" font-size="13" fill="#2b2b2b">Marcus Okonkwo</text>
</g>
<circle cx="3687" cy="225" r="3" fill="#b5462f"/>
<g transform="translate(3707,0)">
<rect width="158" height="110" rx="10" fill="#fffdf8" stroke="#2f3b2f" stroke-width="1.5"/>
<text x="79" y="55" text-anchor="middle" font-family="sans-serif" font-size="13" fill="#2b2b2b">Adaeze Okonkwo</text>
</g>
<g transform="translate(3509,0)">
<rect width="158" height="110" rx="10" fill="#fffdf8" stroke="#2f3b2f" stroke-width="1.5"/>
<text x="79" y="55" text-anchor="middle" font-family="sans-serif" font-size="13" fill="#2b2b2b">Chuka Okonkwo</text>
</g>
<g transform="translate(3410,680)">
<rect width="158" height="110" rx="10" fill="#fffdf8" stroke="#2f3b2f" stroke-width="1.5"/>
<text x="79" y="55" text-anchor="middle" font-family="sans-serif" font-size="13" fill="#2b2b2b">Isaac Okonkwo</text>
</g>
<g transform="translate(3608,680)">
<rect width="158" height="110" rx="10" fill="#fffdf8" stroke="#2f3b2f" stroke-width="1.5"/>
<text x="79" y="55" text-anchor="middle" font-family="sans-serif" font-size="13" fill="#2b2b2b">Naomi Okonkwo</text>
</g>
<circle cx="3786" cy="905" r="3" fill="#b5462f"/>
<g transform="translate(3806,680)">
<rect width="158" height="110" rx="10" fill="#fffdf8" stroke="#2f3b2f" stroke-width="1.5"/>
<text x="79" y="55" text-anchor="middle" font-family="sans-serif" font-size="13" fill="#2b2b2b">Sean Walsh</text>
</g>
<g transform="translate(3707,1020)">
<rect width="158" height="110" rx="10" fill="#fffdf8" stroke="#2f3b2f" stroke-width="1.5"/>
<text x="79" y="55" text-anchor="middle" font-family="sans-serif" font-size="13" fill="#2b2b2b">Aria Walsh</text>
</g>
<g transform="translate(2816,340)">
<rect width="158" height="110" rx="10" fill="#fffdf8" stroke="#2f3b2f" stroke-width="1.5"/>
<text x="79" y="55" text-anchor="middle" font-family="sans-serif" font-size="13" fill="#2b2b2b">Andrew Anderson</text>
</g>
<circle cx="2974" cy="905" r="3" fill="#b5462f"/>
<g transform="translate(3014,680)">
<rect width="158" height="110" rx="10" fill="#fffdf8" stroke="#2f3b2f" stroke-width="1.5"/>
<text x="79" y="55" text-anchor="middle" font-family="sans-serif" font-size="13" fill="#2b2b2b">Beth Hartford</text>
</g>
<circle cx="3093" cy="565" r="3" fill="#b5462f"/>
<g transform="translate(3212,340)">
<rect width="158" height="110" rx="10" fill="#fffdf8" stroke="#2f3b2f" stroke-width="1.5"/>
<text x="79" y="55" text-anchor="middle" font-family="sans-serif" font-size="13" fill="#2b2b2b">Linda Hartford</text>
</g>
<g transform="translate(3014,340)">
<rect width="158" height="110" rx="10" fill="#fffdf8" stroke="#2f3b2f" stroke-width="1.5"/>
<text x="79" y="55" text-anchor="middle" font-family="sans-serif" font-size="13" fill="#2b2b2b">David Hartford</text>
</g>
<g transform="translate(2895,1020)">
<rect width="158" height="110" rx="10" fill="#fffdf8" stroke="#2f3b2f" stroke-width="1.5"/>
<text x="79" y="55" text-anchor="middle" font-family="sans-serif" font-size="13" fill="#2b2b2b">Lucas Anderson</text>
</g>
<g transform="translate(3093,1020)">
<rect width="158" height="110" rx="10" fill="#fffdf8" stroke="#2f3b2f" stroke-width="1.5"/>
<text x="79" y="55" text-anchor="middle" font-family="sans-serif" font-size="13" fill="#2b2b2b">Maya Anderson</text>
</g>
<g transform="translate(2083,340)">
<rect width="158" height="110" rx="10" fill="#fffdf8" stroke="#2f3b2f" stroke-width="1.5"/>
<text x="79" y="55" text-anchor="middle" font-family="sans-serif" font-size="13" fill="#2b2b2b">Robert Smith</text>
</g>
<circle cx="1069" cy="225" r="3" fill="#b5462f"/>
<g transform="translate(1089,0)">
<rect width="158" height="110" rx="10" fill="#fffdf8" stroke="#2f3b2f" stroke-width="1.5"/>
<text x="79" y="55" text-anchor="middle" font-family="sans-serif" font-size="13" fill="#2b2b2b">Margaret Smith</text>
</g>
<g transform="translate(891,0)">
<rect width="158" height="110" rx="10" fill="#fffdf8" stroke="#2f3b2f" stroke-width="1.5"/>
<text x="79" y="55" text-anchor="middle" font-family="sans-serif" font-size="13" fill="#2b2b2b">George Smith</text>
</g>
<g transform="translate(792,340)">
<rect width="158" height="110" rx="10" fill="#fffdf8" stroke="#2f3b2f" stroke-width="1.5"/>
<text x="79" y="55" text-anchor="middle" font-family="sans-serif" font-size="13" fill="#2b2b2b">Eve Smith</text>
</g>
<circle cx="871" cy="735" r="3" fill="#b5462f"/>
<g transform="translate(911,510)">
<rect width="158" height="110" rx="10" fill="#fffdf8" stroke="#2f3b2f" stroke-width="1.5"/>
<text x="79" y="55" text-anchor="middle" font-family="sans-serif" font-size="13" fill="#2b2b2b">Carlos Vargas</text>
</g>
<g transform="translate(396,850)">
<rect width="158" height="110" rx="10" fill="#fffdf8" stroke="#2f3b2f" stroke-width="1.5"/>
<text x="79" y="55" text-anchor="middle" font-family="sans-serif" font-size="13" fill="#2b2b2b">Diego Vargas</text>
</g>
<g transform="translate(792,850)">
<rect width="158" height="110" rx="10" fill="#fffdf8" stroke="#2f3b2f" stroke-width="1.5"/>
<text x="79" y="55" text-anchor="middle" font-family="sans-serif" font-size="13" fill="#2b2b2b">Sophia Vargas</text>
</g>
<g transform="translate(717,1020)">
<rect width="158" height="110" rx="10" fill="#fffdf8" stroke="#2f3b2f" stroke-width="1.5"/>
<text x="79" y="55" text-anchor="middle" font-family="sans-serif" font-size="13" fill="#2b2b2b">Luca Vargas</text>
</g>
<g transform="translate(990,340)">
<rect width="158" height="110" rx="10" fill="#fffdf8" stroke="#2f3b2f" stroke-width="1.5"/>
<text x="79" y="55" text-anchor="middle" font-family="sans-serif" font-size="13" fill="#2b2b2b">Walter Smith</text>
</g>
<circle cx="1192" cy="565" r="3" fill="#b5462f"/>
<g transform="translate(1188,340)">
<rect width="158" height="110" rx="10" fill="#fffdf8" stroke="#2f3b2f" stroke-width="1.5"/>
<text x="79" y="55" text-anchor="middle" font-family="sans-serif" font-size="13" fill="#2b2b2b">Olivia Smith</text>
</g>
<g transform="translate(915,680)">
<rect width="158" height="110" rx="10" fill="#fffdf8" stroke="#2f3b2f" stroke-width="1.5"/>
<text x="79" y="55" text-anchor="middle" font-family="sans-serif" font-size="13" fill="#2b2b2b">Hazel Smith</text>
</g>
<circle cx="1093" cy="905" r="3" fill="#b5462f"/>
<g transform="translate(1113,680)">
<rect width="158" height="110" rx="10" fill="#fffdf8" stroke="#2f3b2f" stroke-width="1.5"/>
<text x="79" y="55" text-anchor="middle" font-family="sans-serif" font-size="13" fill="#2b2b2b">Brian Walsh</text>
</g>
<g transform="translate(915,1020)">
<rect width="158" height="110" rx="10" fill="#fffdf8" stroke="#2f3b2f" stroke-width="1.5"/>
<text x="79" y="55" text-anchor="middle" font-family="sans-serif" font-size="13" fill="#2b2b2b">Beatrice Walsh</text>
</g>
<g transform="translate(1113,1020)">
<rect width="158" height="110" rx="10" fill="#fffdf8" stroke="#2f3b2f" stroke-width="1.5"/>
<text x="79" y="55" text-anchor="middle" font-family="sans-serif" font-size="13" fill="#2b2b2b">Casey Walsh</text>
</g>
<g transform="translate(1311,680)">
<rect width="158" height="110" rx="10" fill="#fffdf8" stroke="#2f3b2f" stroke-width="1.5"/>
<text x="79" y="55" text-anchor="middle" font-family="sans-serif" font-size="13" fill="#2b2b2b">Jonah Smith</text>
</g>
<circle cx="1588" cy="905" r="3" fill="#b5462f"/>
<g transform="translate(1509,680)">
<rect width="158" height="110" rx="10" fill="#fffdf8" stroke="#2f3b2f" stroke-width="1.5"/>
<text x="79" y="55" text-anchor="middle" font-family="sans-serif" font-size="13" fill="#2b2b2b">Mei Lin</text>
</g>
<g transform="translate(1311,1020)">
<rect width="158" height="110" rx="10" fill="#fffdf8" stroke="#2f3b2f" stroke-width="1.5"/>
<text x="79" y="55" text-anchor="middle" font-family="sans-serif" font-size="13" fill="#2b2b2b">Iris Smith</text>
</g>
<g transform="translate(1509,1020)">
<rect width="158" height="110" rx="10" fill="#fffdf8" stroke="#2f3b2f" stroke-width="1.5"/>
<text x="79" y="55" text-anchor="middle" font-family="sans-serif" font-size="13" fill="#2b2b2b">Felix Smith</text>
</g>
<g transform="translate(1707,1020)">
<rect width="158" height="110" rx="10" fill="#fffdf8" stroke="#2f3b2f" stroke-width="1.5"/>
<text x="79" y="55" text-anchor="middle" font-family="sans-serif" font-size="13" fill="#2b2b2b">Nina Smith</text>
</g>
<g transform="translate(259.5,340)">
<rect width="158" height="110" rx="10" fill="#fffdf8" stroke="#2f3b2f" stroke-width="1.5"/>
<text x="79" y="55" text-anchor="middle" font-family="sans-serif" font-size="13" fill="#2b2b2b">Catherine Smith</text>
</g>
<circle cx="277" cy="735" r="3" fill="#b5462f"/>
<g transform="translate(136.5,510)">
<rect width="158" height="110" rx="10" fill="#fffdf8" stroke="#2f3b2f" stroke-width="1.5"/>
<text x="79" y="55" text-anchor="middle" font-family="sans-serif" font-size="13" fill="#2b2b2b">James Brennan</text>
</g>
<circle cx="215.5" cy="395" r="3" fill="#b5462f"/>
<g transform="translate(235.5,170)">
<rect width="158" height="110" rx="10" fill="#fffdf8" stroke="#2f3b2f" stroke-width="1.5"/>
<text x="79" y="55" text-anchor="middle" font-family="sans-serif" font-size="13" fill="#2b2b2b">Marie Brennan</text>
</g>
<g transform="translate(37.5,170)">
<rect width="158" height="110" rx="10" fill="#fffdf8" stroke="#2f3b2f" stroke-width="1.5"/>
<text x="79" y="55" text-anchor="middle" font-family="sans-serif" font-size="13" fill="#2b2b2b">Patrick Brennan</text>
</g>
<g transform="translate(0,850)">
<rect width="158" height="110" rx="10" fill="#fffdf8" stroke="#2f3b2f" stroke-width="1.5"/>
<text x="79" y="55" text-anchor="middle" font-family="sans-serif" font-size="13" fill="#2b2b2b">Ethan Brennan-Smith</text>
</g>
<g transform="translate(198,850)">
<rect width="158" height="110" rx="10" fill="#fffdf8" stroke="#2f3b2f" stroke-width="1.5"/>
<text x="79" y="55" text-anchor="middle" font-family="sans-serif" font-size="13" fill="#2b2b2b">Olivia Brennan-Smith</text>
</g>
<g transform="translate(198,1020)">
<rect width="158" height="110" rx="10" fill="#fffdf8" stroke="#2f3b2f" stroke-width="1.5"/>
<text x="79" y="55" text-anchor="middle" font-family="sans-serif" font-size="13" fill="#2b2b2b">Cara O'Connor-Brennan</text>
</g>
<circle cx="475" cy="1075" r="3" fill="#b5462f"/>
<g transform="translate(594,850)">
<rect width="158" height="110" rx="10" fill="#fffdf8" stroke="#2f3b2f" stroke-width="1.5"/>
<text x="79" y="55" text-anchor="middle" font-family="sans-serif" font-size="13" fill="#2b2b2b">Aisling O'Connor</text>
</g>
<g transform="translate(1786,680)">
<rect width="158" height="110" rx="10" fill="#fffdf8" stroke="#2f3b2f" stroke-width="1.5"/>
<text x="79" y="55" text-anchor="middle" font-family="sans-serif" font-size="13" fill="#2b2b2b">Penny Smith</text>
</g>
<circle cx="1984" cy="905" r="3" fill="#b5462f"/>
<g transform="translate(1984,680)">
<rect width="158" height="110" rx="10" fill="#fffdf8" stroke="#2f3b2f" stroke-width="1.5"/>
<text x="79" y="55" text-anchor="middle" font-family="sans-serif" font-size="13" fill="#2b2b2b">Rohan Patel</text>
</g>
<g transform="translate(1905,1020)">
<rect width="158" height="110" rx="10" fill="#fffdf8" stroke="#2f3b2f" stroke-width="1.5"/>
<text x="79" y="55" text-anchor="middle" font-family="sans-serif" font-size="13" fill="#2b2b2b">Sage Smith-Patel</text>
</g>
<g transform="translate(2103,1020)">
<rect width="158" height="110" rx="10" fill="#fffdf8" stroke="#2f3b2f" stroke-width="1.5"/>
<text x="79" y="55" text-anchor="middle" font-family="sans-serif" font-size="13" fill="#2b2b2b">Anya Smith-Patel</text>
</g>
<g transform="translate(2182,680)">
<rect width="158" height="110" rx="10" fill="#fffdf8" stroke="#2f3b2f" stroke-width="1.5"/>
<text x="79" y="55" text-anchor="middle" font-family="sans-serif" font-size="13" fill="#2b2b2b">Adam Smith</text>
</g>
<circle cx="2380" cy="905" r="3" fill="#b5462f"/>
<g transform="translate(2380,680)">
<rect width="158" height="110" rx="10" fill="#fffdf8" stroke="#2f3b2f" stroke-width="1.5"/>
<text x="79" y="55" text-anchor="middle" font-family="sans-serif" font-size="13" fill="#2b2b2b">Lily Carter</text>
</g>
<g transform="translate(2301,1020)">
<rect width="158" height="110" rx="10" fill="#fffdf8" stroke="#2f3b2f" stroke-width="1.5"/>
<text x="79" y="55" text-anchor="middle" font-family="sans-serif" font-size="13" fill="#2b2b2b">Owen Smith</text>
</g>
<g transform="translate(2499,1020)">
<rect width="158" height="110" rx="10" fill="#fffdf8" stroke="#2f3b2f" stroke-width="1.5"/>
<text x="79" y="55" text-anchor="middle" font-family="sans-serif" font-size="13" fill="#2b2b2b">Ava Smith</text>
</g>
<g transform="translate(2578,680)">
<rect width="158" height="110" rx="10" fill="#fffdf8" stroke="#2f3b2f" stroke-width="1.5"/>
<text x="79" y="55" text-anchor="middle" font-family="sans-serif" font-size="13" fill="#2b2b2b">Daniel Smith</text>
</g>
<circle cx="2776" cy="905" r="3" fill="#b5462f"/>
<g transform="translate(2776,680)">
<rect width="158" height="110" rx="10" fill="#fffdf8" stroke="#2f3b2f" stroke-width="1.5"/>
<text x="79" y="55" text-anchor="middle" font-family="sans-serif" font-size="13" fill="#2b2b2b">Nora Smith</text>
</g>
<g transform="translate(2697,1020)">
<rect width="158" height="110" rx="10" fill="#fffdf8" stroke="#2f3b2f" stroke-width="1.5"/>
<text x="79" y="55" text-anchor="middle" font-family="sans-serif" font-size="13" fill="#2b2b2b">Theodore Smith</text>
</g>
</svg>