<svg xmlns="http://www.w3.org/2000/svg" width="4984" height="966" viewBox="0 0 4984 966">
<rect width="100%" height="100%" fill="#fbf7ee"/>
<path d="M495,130 L495,160 L1877,193.9018759018759" fill="none" stroke="#7a6f63" stroke-width="1.5"/>
<path d="M1980,130 L1980,160 L1885,192.62626262626262" fill="none" stroke="#7a6f63" stroke-width="1.5"/>
<path d="M2942.5,130 L2942.5,160 L3631.5,193.8037518037518" fill="none" stroke="#7a6f63" stroke-width="1.5"/>
<path d="M4021.5,130 L4021.5,160 L3639.5,193.6476683937824" fill="none" stroke="#7a6f63" stroke-width="1.5"/>
<path d="M2178,130 L2178,160 L2740.5,193.75992939099734" fill="none" stroke="#7a6f63" stroke-width="1.5"/>
<path d="M2744.5,130 L2744.5,160 L2744.5,190" fill="none" stroke="#7a6f63" stroke-width="1.5"/>
<path d="M99,130 L99,160 L293,193.31313131313132" fill="none" stroke="#7a6f63" stroke-width="1.5"/>
<path d="M297,130 L297,160 L297,190" fill="none" stroke="#7a6f63" stroke-width="1.5"/>
<path d="M4219.5,130 L4219.5,160 L4314.5,192.62626262626262" fill="none" stroke="#7a6f63" stroke-width="1.5"/>
<path d="M4417.5,130 L4417.5,160 L4322.5,192.62626262626262" fill="none" stroke="#7a6f63" stroke-width="1.5"/>
<path d="M2645.5,368 L2645.5,398 L3334.5,431.8037518037518" fill="none" stroke="#7a6f63" stroke-width="1.5"/>
<path d="M3724.5,368 L3724.5,398 L3342.5,431.6476683937824" fill="none" stroke="#7a6f63" stroke-width="1.5"/>
<path d="M297,368 L297,398 L392,430.62626262626264" fill="none" stroke="#7a6f63" stroke-width="1.5"/>
<path d="M495,368 L495,398 L400,430.62626262626264" fill="none" stroke="#7a6f63" stroke-width="1.5"/>
<path d="M2150.5,368 L2150.5,398 L2443.5,431.54208754208753" fill="none" stroke="#7a6f63" stroke-width="1.5"/>
<path d="M2447.5,368 L2447.5,398 L2447.5,428" fill="none" stroke="#7a6f63" stroke-width="1.5"/>
<path d="M1683,368 L1683,398 L1948.5,431.49536178107604" fill="none" stroke="#7a6f63" stroke-width="1.5"/>
<path d="M1952.5,368 L1952.5,398 L1952.5,428" fill="none" stroke="#7a6f63" stroke-width="1.5"/>
<path d="M4021.5,368 L4021.5,398 L4225.5,431.34615384615387" fill="none" stroke="#7a6f63" stroke-width="1.5"/>
<path d="M4318.5,368 L4318.5,398 L4233.5,430.4719101123595" fill="none" stroke="#7a6f63" stroke-width="1.5"/>
<path d="M601.5,572.8729641693811 L829.5,636 L878.5764705882353,717" fill="none" stroke="#7a6f63" stroke-width="1.5"/>
<path d="M799.5,576.8766859344894 L980,636 L885,717.5656565656566" fill="none" stroke="#7a6f63" stroke-width="1.5"/>
<path d="M4291,606 L4291,636 L4386,717.5656565656566" fill="none" stroke="#7a6f63" stroke-width="1.5"/>
<path d="M4489,606 L4489,636 L4394,717.5656565656566" fill="none" stroke="#7a6f63" stroke-width="1.5"/>
<path d="M3895,606 L3895,636 L3990,717.5656565656566" fill="none" stroke="#7a6f63" stroke-width="1.5"/>
<path d="M4093,606 L4093,636 L3998,717.5656565656566" fill="none" stroke="#7a6f63" stroke-width="1.5"/>
<path d="M1229.5,559.6701097482246 L1925,636 L2443.5,720.3492822966507" fill="none" stroke="#7a6f63" stroke-width="1.5"/>
<path d="M3004,606 L3004,636 L2451.5,720.3890386343217" fill="none" stroke="#7a6f63" stroke-width="1.5"/>
<path d="M2331,561.8656957928803 L1792,636 L1887,717.5656565656566" fill="none" stroke="#7a6f63" stroke-width="1.5"/>
<path d="M2529,560.5519203413941 L1905,636 L1891.6588235294118,717" fill="none" stroke="#7a6f63" stroke-width="1.5"/>
<path d="M1341,566.9880952380952 L1000,636 L1392,720.1414141414141" fill="none" stroke="#7a6f63" stroke-width="1.5"/>
<path d="M2133,563.6937618147448 L1683,636 L1400,719.815331010453" fill="none" stroke="#7a6f63" stroke-width="1.5"/>
<path d="M4687,606 L4687,636 L4782,717.5656565656566" fill="none" stroke="#7a6f63" stroke-width="1.5"/>
<path d="M4885,606 L4885,636 L4790,717.5656565656566" fill="none" stroke="#7a6f63" stroke-width="1.5"/>
<path d="M1885,194.17789404839763 L2645.5,228 L2645.5,258" fill="none" stroke="#7a6f63" stroke-width="1.5"/>
<path d="M1877,194.08585858585857 L297,228 L297,258" fill="none" stroke="#7a6f63" stroke-width="1.5"/>
<path d="M3639.5,195.52808988764045 L3724.5,228 L3724.5,258" fill="none" stroke="#7a6f63" stroke-width="1.5"/>
<path d="M3631.5,194.0915824915825 L2150.5,228 L2150.5,258" fill="none" stroke="#7a6f63" stroke-width="1.5"/>
<path d="M1877,194.68686868686868 L1683,228 L1683,258" fill="none" stroke="#7a6f63" stroke-width="1.5"/>
<path d="M1877,194.34343434343435 L1485,228 L1485,258" fill="none" stroke="#7a6f63" stroke-width="1.5"/>
<path d="M301,194.68686868686868 L495,228 L495,258" fill="none" stroke="#7a6f63" stroke-width="1.5"/>
<path d="M3639.5,194.3523316062176 L4021.5,228 L4021.5,258" fill="none" stroke="#7a6f63" stroke-width="1.5"/>
<path d="M4318.5,198 L4318.5,228 L4318.5,258" fill="none" stroke="#7a6f63" stroke-width="1.5"/>
<path d="M2740.5,194.45791245791247 L2447.5,228 L2447.5,258" fill="none" stroke="#7a6f63" stroke-width="1.5"/>
<path d="M3334.5,432.04829545454544 L522.5,466 L522.5,496" fill="none" stroke="#7a6f63" stroke-width="1.5"/>
<path d="M3342.5,432.14278215223095 L4291,466 L4291,496" fill="none" stroke="#7a6f63" stroke-width="1.5"/>
<path d="M3342.5,432.24438454627136 L3895,466 L3895,496" fill="none" stroke="#7a6f63" stroke-width="1.5"/>
<path d="M400,432.18025182239893 L1150.5,466 L1150.5,496" fill="none" stroke="#7a6f63" stroke-width="1.5"/>
<path d="M400,432.1112929623568 L1618,466 L1618,496" fill="none" stroke="#7a6f63" stroke-width="1.5"/>
<path d="M2443.5,432.215360253365 L1816,466 L1816,496" fill="none" stroke="#7a6f63" stroke-width="1.5"/>
<path d="M2443.5,432.3137254901961 L2014,466 L2014,496" fill="none" stroke="#7a6f63" stroke-width="1.5"/>
<path d="M1956.5,432.2972677595628 L2410,466 L2410,496" fill="none" stroke="#7a6f63" stroke-width="1.5"/>
<path d="M1948.5,432.25539906103285 L1420,466 L1420,496" fill="none" stroke="#7a6f63" stroke-width="1.5"/>
<path d="M4233.5,432.2972677595628 L4687,466 L4687,496" fill="none" stroke="#7a6f63" stroke-width="1.5"/>
<path d="M4225.5,432.0955391640323 L2806,466 L2806,496" fill="none" stroke="#7a6f63" stroke-width="1.5"/>
<path d="M693,368 L693,398 L1382,431.8037518037518" fill="none" stroke="#7a6f63" stroke-width="1.5"/>
<path d="M1485,368 L1485,398 L1390,430.62626262626264" fill="none" stroke="#7a6f63" stroke-width="1.5"/>
<path d="M1382,432.1281205840791 L324.5,466 L324.5,496" fill="none" stroke="#7a6f63" stroke-width="1.5"/>
<path d="M1390,432.0748898678414 L3202,466 L3202,496" fill="none" stroke="#7a6f63" stroke-width="1.5"/>
<path d="M881,725 L881,806 L881,836" fill="none" stroke="#7a6f63" stroke-width="1.5"/>
<path d="M4394,724.4343434343434 L4489,806 L4489,836" fill="none" stroke="#7a6f63" stroke-width="1.5"/>
<path d="M4386,724.4343434343434 L4291,806 L4291,836" fill="none" stroke="#7a6f63" stroke-width="1.5"/>
<path d="M3998,724.4343434343434 L4093,806 L4093,836" fill="none" stroke="#7a6f63" stroke-width="1.5"/>
<path d="M3990,722.1447811447812 L3697,806 L3697,836" fill="none" stroke="#7a6f63" stroke-width="1.5"/>
<path d="M1071.5,561.6926751592357 L522.5,636 L522.5,666" fill="none" stroke="#7a6f63" stroke-width="1.5"/>
<path d="M1895,721.2114427860696 L3499,806 L3499,836" fill="none" stroke="#7a6f63" stroke-width="1.5"/>
<path d="M1891,725 L1891,806 L1891,836" fill="none" stroke="#7a6f63" stroke-width="1.5"/>
<path d="M1887,722.7171717171717 L1693,806 L1693,836" fill="none" stroke="#7a6f63" stroke-width="1.5"/>
<path d="M1400,724.4343434343434 L1495,806 L1495,836" fill="none" stroke="#7a6f63" stroke-width="1.5"/>
<path d="M1392,722.1074918566775 L1089,806 L1089,836" fill="none" stroke="#7a6f63" stroke-width="1.5"/>
<path d="M4786,725 L4786,806 L4786,836" fill="none" stroke="#7a6f63" stroke-width="1.5"/>
<path d="M403.5,567.9570707070707 L720.5,636 L720.5,666" fill="none" stroke="#7a6f63" stroke-width="1.5"/>
<g transform="translate(416,20)">
<rect width="158" height="110" rx="10" fill="#fffdf8" stroke="#2f3b2f" stroke-width="1.5"/>
<text x="79" y="55" text-anchor="middle" font-family="sans-serif" font-size="13" fill="#2b2b2b">George Smith</text>
</g>
<g transform="translate(1901,20)">
<rect width="158" height="110" rx="10" fill="#fffdf8" stroke="#2f3b2f" stroke-width="1.5"/>
<text x="79" y="55" text-anchor="middle" font-family="sans-serif" font-size="13" fill="#2b2b2b">Margaret Smith</text>
</g>
<g transform="translate(2863.5,20)">
<rect width="158" height="110" rx="10" fill="#fffdf8" stroke="#2f3b2f" stroke-width="1.5"/>
<text x="79" y="55" text-anchor="middle" font-family="sans-serif" font-size="13" fill="#2b2b2b">Henry Anderson</text>
</g>
<g transform="translate(3942.5,20)">
<rect width="158" height="110" rx="10" fill="#fffdf8" stroke="#2f3b2f" stroke-width="1.5"/>
<text x="79" y="55" text-anchor="middle" font-family="sans-serif" font-size="13" fill="#2b2b2b">Eleanor Anderson</text>
</g>
<g transform="translate(2099,20)">
<rect width="158" height="110" rx="10" fill="#fffdf8" stroke="#2f3b2f" stroke-width="1.5"/>
<text x="79" y="55" text-anchor="middle" font-family="sans-serif" font-size="13" fill="#2b2b2b">David Hartford</text>
</g>
<g transform="translate(2665.5,20)">
<rect width="158" height="110" rx="10" fill="#fffdf8" stroke="#2f3b2f" stroke-width="1.5"/>
<text x="79" y="55" text-anchor="middle" font-family="sans-serif" font-size="13" fill="#2b2b2b">Linda Hartford</text>
</g>
<g transform="translate(20,20)">
<rect width="158" height="110" rx="10" fill="#fffdf8" stroke="#2f3b2f" stroke-width="1.5"/>
<text x="79" y="55" text-anchor="middle" font-family="sans-serif" font-size="13" fill="#2b2b2b">Patrick Brennan</text>
</g>
<g transform="translate(218,20)">
<rect width="158" height="110" rx="10" fill="#fffdf8" stroke="#2f3b2f" stroke-width="1.5"/>
<text x="79" y="55" text-anchor="middle" font-family="sans-serif" font-size="13" fill="#2b2b2b">Marie Brennan</text>
</g>
<g transform="translate(4140.5,20)">
<rect width="158" height="110" rx="10" fill="#fffdf8" stroke="#2f3b2f" stroke-width="1.5"/>
<text x="79" y="55" text-anchor="middle" font-family="sans-serif" font-size="13" fill="#2b2b2b">Chuka Okonkwo</text>
</g>
<g transform="translate(4338.5,20)">
<rect width="158" height="110" rx="10" fill="#fffdf8" stroke="#2f3b2f" stroke-width="1.5"/>
<text x="79" y="55" text-anchor="middle" font-family="sans-serif" font-size="13" fill="#2b2b2b">Adaeze Okonkwo</text>
</g>
<g transform="translate(2566.5,258)">
<rect width="158" height="110" rx="10" fill="#fffdf8" stroke="#2f3b2f" stroke-width="1.5"/>
<text x="79" y="55" text-anchor="middle" font-family="sans-serif" font-size="13" fill="#2b2b2b">Robert Smith</text>
</g>
<g transform="translate(218,258)">
<rect width="158" height="110" rx="10" fill="#fffdf8" stroke="#2f3b2f" stroke-width="1.5"/>
<text x="79" y="55" text-anchor="middle" font-family="sans-serif" font-size="13" fill="#2b2b2b">Catherine Smith</text>
</g>
<g transform="translate(3645.5,258)">
<rect width="158" height="110" rx="10" fill="#fffdf8" stroke="#2f3b2f" stroke-width="1.5"/>
<text x="79" y="55" text-anchor="middle" font-family="sans-serif" font-size="13" fill="#2b2b2b">Susan Smith</text>
</g>
<g transform="translate(2071.5,258)">
<rect width="158" height="110" rx="10" fill="#fffdf8" stroke="#2f3b2f" stroke-width="1.5"/>
<text x="79" y="55" text-anchor="middle" font-family="sans-serif" font-size="13" fill="#2b2b2b">Andrew Anderson</text>
</g>
<g transform="translate(1604,258)">
<rect width="158" height="110" rx="10" fill="#fffdf8" stroke="#2f3b2f" stroke-width="1.5"/>
<text x="79" y="55" text-anchor="middle" font-family="sans-serif" font-size="13" fill="#2b2b2b">Walter Smith</text>
</g>
<g transform="translate(1873.5,258)">
<rect width="158" height="110" rx="10" fill="#fffdf8" stroke="#2f3b2f" stroke-width="1.5"/>
<text x="79" y="55" text-anchor="middle" font-family="sans-serif" font-size="13" fill="#2b2b2b">Olivia Smith</text>
</g>
<g transform="translate(1406,258)">
<rect width="158" height="110" rx="10" fill="#fffdf8" stroke="#2f3b2f" stroke-width="1.5"/>
<text x="79" y="55" text-anchor="middle" font-family="sans-serif" font-size="13" fill="#2b2b2b">Eve Smith</text>
</g>
<g transform="translate(614,258)">
<rect width="158" height="110" rx="10" fill="#fffdf8" stroke="#2f3b2f" stroke-width="1.5"/>
<text x="79" y="55" text-anchor="middle" font-family="sans-serif" font-size="13" fill="#2b2b2b">Carlos Vargas</text>
</g>
<g transform="translate(416,258)">
<rect width="158" height="110" rx="10" fill="#fffdf8" stroke="#2f3b2f" stroke-width="1.5"/>
<text x="79" y="55" text-anchor="middle" font-family="sans-serif" font-size="13" fill="#2b2b2b">James Brennan</text>
</g>
<g transform="translate(3942.5,258)">
<rect width="158" height="110" rx="10" fill="#fffdf8" stroke="#2f3b2f" stroke-width="1.5"/>
<text x="79" y="55" text-anchor="middle" font-family="sans-serif" font-size="13" fill="#2b2b2b">Helen Anderson</text>
</g>
<g transform="translate(4239.5,258)">
<rect width="158" height="110" rx="10" fill="#fffdf8" stroke="#2f3b2f" stroke-width="1.5"/>
<text x="79" y="55" text-anchor="middle" font-family="sans-serif" font-size="13" fill="#2b2b2b">Marcus Okonkwo</text>
</g>
<g transform="translate(2368.5,258)">
<rect width="158" height="110" rx="10" fill="#fffdf8" stroke="#2f3b2f" stroke-width="1.5"/>
<text x="79" y="55" text-anchor="middle" font-family="sans-serif" font-size="13" fill="#2b2b2b">Beth Hartford</text>
</g>
<g transform="translate(443.5,496)">
<rect width="158" height="110" rx="10" fill="#fffdf8" stroke="#2f3b2f" stroke-width="1.5"/>
<text x="79" y="55" text-anchor="middle" font-family="sans-serif" font-size="13" fill="#2b2b2b">Daniel Smith</text>
</g>
<g transform="translate(4212,496)">
<rect width="158" height="110" rx="10" fill="#fffdf8" stroke="#2f3b2f" stroke-width="1.5"/>
<text x="79" y="55" text-anchor="middle" font-family="sans-serif" font-size="13" fill="#2b2b2b">Adam Smith</text>
</g>
<g transform="translate(3816,496)">
<rect width="158" height="110" rx="10" fill="#fffdf8" stroke="#2f3b2f" stroke-width="1.5"/>
<text x="79" y="55" text-anchor="middle" font-family="sans-serif" font-size="13" fill="#2b2b2b">Penny Smith</text>
</g>
<g transform="translate(641.5,496)">
<rect width="158" height="110" rx="10" fill="#fffdf8" stroke="#2f3b2f" stroke-width="1.5"/>
<text x="79" y="55" text-anchor="middle" font-family="sans-serif" font-size="13" fill="#2b2b2b">Nora Smith</text>
</g>
<g transform="translate(1071.5,496)">
<rect width="158" height="110" rx="10" fill="#fffdf8" stroke="#2f3b2f" stroke-width="1.5"/>
<text x="79" y="55" text-anchor="middle" font-family="sans-serif" font-size="13" fill="#2b2b2b">Olivia Brennan-Smith</text>
</g>
<g transform="translate(1539,496)">
<rect width="158" height="110" rx="10" fill="#fffdf8" stroke="#2f3b2f" stroke-width="1.5"/>
<text x="79" y="55" text-anchor="middle" font-family="sans-serif" font-size="13" fill="#2b2b2b">Ethan Brennan-Smith</text>
</g>
<g transform="translate(1737,496)">
<rect width="158" height="110" rx="10" fill="#fffdf8" stroke="#2f3b2f" stroke-width="1.5"/>
<text x="79" y="55" text-anchor="middle" font-family="sans-serif" font-size="13" fill="#2b2b2b">Maya Anderson</text>
</g>
<g transform="translate(1935,496)">
<rect width="158" height="110" rx="10" fill="#fffdf8" stroke="#2f3b2f" stroke-width="1.5"/>
<text x="79" y="55" text-anchor="middle" font-family="sans-serif" font-size="13" fill="#2b2b2b">Lucas Anderson</text>
</g>
<g transform="translate(2331,496)">
<rect width="158" height="110" rx="10" fill="#fffdf8" stroke="#2f3b2f" stroke-width="1.5"/>
<text x="79" y="55" text-anchor="middle" font-family="sans-serif" font-size="13" fill="#2b2b2b">Jonah Smith</text>
</g>
<g transform="translate(1341,496)">
<rect width="158" height="110" rx="10" fill="#fffdf8" stroke="#2f3b2f" stroke-width="1.5"/>
<text x="79" y="55" text-anchor="middle" font-family="sans-serif" font-size="13" fill="#2b2b2b">Hazel Smith</text>
</g>
<g transform="translate(4608,496)">
<rect width="158" height="110" rx="10" fill="#fffdf8" stroke="#2f3b2f" stroke-width="1.5"/>
<text x="79" y="55" text-anchor="middle" font-family="sans-serif" font-size="13" fill="#2b2b2b">Naomi Okonkwo</text>
</g>
<g transform="translate(2727,496)">
<rect width="158" height="110" rx="10" fill="#fffdf8" stroke="#2f3b2f" stroke-width="1.5"/>
<text x="79" y="55" text-anchor="middle" font-family="sans-serif" font-size="13" fill="#2b2b2b">Isaac Okonkwo</text>
</g>
<g transform="translate(245.5,496)">
<rect width="158" height="110" rx="10" fill="#fffdf8" stroke="#2f3b2f" stroke-width="1.5"/>
<text x="79" y="55" text-anchor="middle" font-family="sans-serif" font-size="13" fill="#2b2b2b">Sophia Vargas</text>
</g>
<g transform="translate(3123,496)">
<rect width="158" height="110" rx="10" fill="#fffdf8" stroke="#2f3b2f" stroke-width="1.5"/>
<text x="79" y="55" text-anchor="middle" font-family="sans-serif" font-size="13" fill="#2b2b2b">Diego Vargas</text>
</g>
<g transform="translate(4410,496)">
<rect width="158" height="110" rx="10" fill="#fffdf8" stroke="#2f3b2f" stroke-width="1.5"/>
<text x="79" y="55" text-anchor="middle" font-family="sans-serif" font-size="13" fill="#2b2b2b">Lily Carter</text>
</g>
<g transform="translate(4014,496)">
<rect width="158" height="110" rx="10" fill="#fffdf8" stroke="#2f3b2f" stroke-width="1.5"/>
<text x="79" y="55" text-anchor="middle" font-family="sans-serif" font-size="13" fill="#2b2b2b">Rohan Patel</text>
</g>
<g transform="translate(2925,496)">
<rect width="158" height="110" rx="10" fill="#fffdf8" stroke="#2f3b2f" stroke-width="1.5"/>
<text x="79" y="55" text-anchor="middle" font-family="sans-serif" font-size="13" fill="#2b2b2b">Aisling O'Connor</text>
</g>
<g transform="translate(2529,496)">
<rect width="158" height="110" rx="10" fill="#fffdf8" stroke="#2f3b2f" stroke-width="1.5"/>
<text x="79" y="55" text-anchor="middle" font-family="sans-serif" font-size="13" fill="#2b2b2b">Mei Lin</text>
</g>
<g transform="translate(4806,496)">
<rect width="158" height="110" rx="10" fill="#fffdf8" stroke="#2f3b2f" stroke-width="1.5"/>
<text x="79" y="55" text-anchor="middle" font-family="sans-serif" font-size="13" fill="#2b2b2b">Sean Walsh</text>
</g>
<g transform="translate(2133,496)">
<rect width="158" height="110" rx="10" fill="#fffdf8" stroke="#2f3b2f" stroke-width="1.5"/>
<text x="79" y="55" text-anchor="middle" font-family="sans-serif" font-size="13" fill="#2b2b2b">Brian Walsh</text>
</g>
<g transform="translate(802,836)">
<rect width="158" height="110" rx="10" fill="#fffdf8" stroke="#2f3b2f" stroke-width="1.5"/>
<text x="79" y="55" text-anchor="middle" font-family="sans-serif" font-size="13" fill="#2b2b2b">Theodore Smith</text>
</g>
<g transform="translate(4410,836)">
<rect width="158" height="110" rx="10" fill="#fffdf8" stroke="#2f3b2f" stroke-width="1.5"/>
<text x="79" y="55" text-anchor="middle" font-family="sans-serif" font-size="13" fill="#2b2b2b">Ava Smith</text>
</g>
<g transform="translate(4212,836)">
<rect width="158" height="110" rx="10" fill="#fffdf8" stroke="#2f3b2f" stroke-width="1.5"/>
<text x="79" y="55" text-anchor="middle" font-family="sans-serif" font-size="13" fill="#2b2b2b">Owen Smith</text>
</g>
<g transform="translate(4014,836)">
<rect width="158" height="110" rx="10" fill="#fffdf8" stroke="#2f3b2f" stroke-width="1.5"/>
<text x="79" y="55" text-anchor="middle" font-family="sans-serif" font-size="13" fill="#2b2b2b">Anya Smith-Patel</text>
</g>
<g transform="translate(3618,836)">
<rect width="158" height="110" rx="10" fill="#fffdf8" stroke="#2f3b2f" stroke-width="1.5"/>
<text x="79" y="55" text-anchor="middle" font-family="sans-serif" font-size="13" fill="#2b2b2b">Sage Smith-Patel</text>
</g>
<g transform="translate(443.5,666)">
<rect width="158" height="110" rx="10" fill="#fffdf8" stroke="#2f3b2f" stroke-width="1.5"/>
<text x="79" y="55" text-anchor="middle" font-family="sans-serif" font-size="13" fill="#2b2b2b">Cara O'Connor-Brennan</text>
</g>
<g transform="translate(3420,836)">
<rect width="158" height="110" rx="10" fill="#fffdf8" stroke="#2f3b2f" stroke-width="1.5"/>
<text x="79" y="55" text-anchor="middle" font-family="sans-serif" font-size="13" fill="#2b2b2b">Nina Smith</text>
</g>
<g transform="translate(1812,836)">
<rect width="158" height="110" rx="10" fill="#fffdf8" stroke="#2f3b2f" stroke-width="1.5"/>
<text x="79" y="55" text-anchor="middle" font-family="sans-serif" font-size="13" fill="#2b2b2b">Felix Smith</text>
</g>
<g transform="translate(1614,836)">
<rect width="158" height="110" rx="10" fill="#fffdf8" stroke="#2f3b2f" stroke-width="1.5"/>
<text x="79" y="55" text-anchor="middle" font-family="sans-serif" font-size="13" fill="#2b2b2b">Iris Smith</text>
</g>
<g transform="translate(1416,836)">
<rect width="158" height="110" rx="10" fill="#fffdf8" stroke="#2f3b2f" stroke-width="1.5"/>
<text x="79" y="55" text-anchor="middle" font-family="sans-serif" font-size="13" fill="#2b2b2b">Casey Walsh</text>
</g>
<g transform="translate(1010,836)">
<rect width="158" height="110" rx="10" fill="#fffdf8" stroke="#2f3b2f" stroke-width="1.5"/>
<text x="79" y="55" text-anchor="middle" font-family="sans-serif" font-size="13" fill="#2b2b2b">Beatrice Walsh</text>
</g>
<g transform="translate(4707,836)">
<rect width="158" height="110" rx="10" fill="#fffdf8" stroke="#2f3b2f" stroke-width="1.5"/>
<text x="79" y="55" text-anchor="middle" font-family="sans-serif" font-size="13" fill="#2b2b2b">Aria Walsh</text>
</g>
<g transform="translate(641.5,666)">
<rect width="158" height="110" rx="10" fill="#fffdf8" stroke="#2f3b2f" stroke-width="1.5"/>
<text x="79" y="55" text-anchor="middle" font-family="sans-serif" font-size="13" fill="#2b2b2b">Luca Vargas</text>
</g>
<circle cx="1881" cy="194" r="3" fill="#b5462f"/>
<circle cx="3635.5" cy="194" r="3" fill="#b5462f"/>
<circle cx="2744.5" cy="194" r="3" fill="#b5462f"/>
<circle cx="297" cy="194" r="3" fill="#b5462f"/>
<circle cx="4318.5" cy="194" r="3" fill="#b5462f"/>
<circle cx="3338.5" cy="432" r="3" fill="#b5462f"/>
<circle cx="396" cy="432" r="3" fill="#b5462f"/>
<circle cx="2447.5" cy="432" r="3" fill="#b5462f"/>
<circle cx="1952.5" cy="432" r="3" fill="#b5462f"/>
<circle cx="4229.5" cy="432" r="3" fill="#b5462f"/>
<circle cx="881" cy="721" r="3" fill="#b5462f"/>
<circle cx="4390" cy="721" r="3" fill="#b5462f"/>
<circle cx="3994" cy="721" r="3" fill="#b5462f"/>
<circle cx="2447.5" cy="721" r="3" fill="#b5462f"/>
<circle cx="1891" cy="721" r="3" fill="#b5462f"/>
<circle cx="1396" cy="721" r="3" fill="#b5462f"/>
<circle cx="4786" cy="721" r="3" fill="#b5462f"/>
<circle cx="1386" cy="432" r="3" fill="#b5462f"/>
</svg>